<svg xmlns="http://www.w3.org/2000/svg" width="15" height="15.97" viewBox="0 0 15 15.97">
  <defs>
    <style>
      .cls-1 {
        fill: #999;
        fill-rule: evenodd;
      }
    </style>
  </defs>
  <path id="google_plus" data-name="google plus" class="cls-1" d="M665.52,1929.23c-1.633-1.16-2.244-1.7-1.2-2.62s1.872-1.67,1.872-3.38a3.2,3.2,0,0,0-1.415-2.58,3.083,3.083,0,0,0,1.568-.16,5.336,5.336,0,0,0,.783-0.5h-5.2c-1.044,0-3.94,1.18-3.94,3.94s3,3.36,4.094,3.31a1.254,1.254,0,0,0,.239,1.77c0.328,0.36.261,0.46-.129,0.46s-5.227.06-5.227,3.51,6.423,3.71,8.535,1.84A3.47,3.47,0,0,0,665.52,1929.23Zm-3.092-2.67c-2.592,0-3.768-6.04-.719-6.04C664.082,1920.43,665.867,1926.56,662.428,1926.56Zm-0.308,8.46c-2.153,0-3.307-1.07-3.307-2.67s1.568-2.39,4.507-2.39c0.8,0.61,2.221,1.35,2.221,2.85S664.273,1935.02,662.12,1935.02Zm7.895-14.99V1922h1.959v1.02h-1.959v1.97H669v-1.97h-1.992V1922H669v-1.97h1.018Z" transform="translate(-656.969 -1920)"/>
</svg>
