<svg xmlns="http://www.w3.org/2000/svg" width="18" height="10.97" viewBox="0 0 18 10.97">
  <defs>
    <style>
      .cls-1 {
        fill: #999;
        fill-rule: evenodd;
      }
    </style>
  </defs>
  <path id="behance" class="cls-1" d="M687,1922.03h5.214c2.11,0,3.537.73,3.537,2.74a2.381,2.381,0,0,1-1.5,2.26,2.635,2.635,0,0,1,2.033,2.73c0,2.19-1.909,3.13-3.91,3.13H687v-10.86Zm2.227,4.44H691.9a1.272,1.272,0,0,0,1.49-1.29c0-1.03-.808-1.24-1.676-1.24h-2.49v2.53Zm0,4.58h2.816c0.962,0,1.8-.3,1.8-1.42a1.485,1.485,0,0,0-1.753-1.55h-2.862v2.97Zm9.973-1.44c0.062,1.36.745,1.77,1.97,1.77,0.885,0,1.6-.15,1.739-0.64h1.939c-0.62,1.85-1.939,2.26-3.755,2.26a3.863,3.863,0,0,1-4.1-4.11,3.972,3.972,0,0,1,4.1-4.13c2.73,0,4.049,2.44,3.9,4.85H699.2Zm3.585-1.16c-0.2-1.09-.684-2.07-1.754-2.07-1.4,0-1.8,1.47-1.831,2.07h3.585Zm0.917-4.26h-5.543v-1.1H703.7v1.1Z" transform="translate(-687 -1922.03)"/>
</svg>
