<svg xmlns="http://www.w3.org/2000/svg" width="16" height="16" viewBox="0 0 16 16">
  <defs>
    <style>
      .cls-1 {
        fill: #fff;
        fill-rule: evenodd;
      }
    </style>
  </defs>
  <path id="instagram" class="cls-1" d="M259.4,5255H246.6a1.6,1.6,0,0,0-1.6,1.6v12.8a1.6,1.6,0,0,0,1.6,1.6h12.8a1.6,1.6,0,0,0,1.6-1.6v-12.8A1.6,1.6,0,0,0,259.4,5255Zm-6.4,4.8a3.2,3.2,0,1,1-3.2,3.2A3.209,3.209,0,0,1,253,5259.8Zm-6,9.6a0.378,0.378,0,0,1-.4-0.4v-6.8h1.68a2.722,2.722,0,0,0-.08.8,4.8,4.8,0,0,0,9.6,0,2.722,2.722,0,0,0-.08-0.8h1.68v6.8a0.378,0.378,0,0,1-.4.4H247Zm12.4-10.8a0.378,0.378,0,0,1-.4.4h-1.6a0.378,0.378,0,0,1-.4-0.4V5257a0.378,0.378,0,0,1,.4-0.4H259a0.378,0.378,0,0,1,.4.4v1.6Z" transform="translate(-245 -5255)"/>
</svg>
