<svg xmlns="http://www.w3.org/2000/svg" width="16" height="15.97" viewBox="0 0 16 15.97">
  <defs>
    <style>
      .cls-1 {
        fill: #fff;
        fill-rule: evenodd;
      }
    </style>
  </defs>
  <path id="pinterest" class="cls-1" d="M221.988,5255.02a7.984,7.984,0,0,0-3.167,15.32,6.994,6.994,0,0,1,.141-1.82c0.154-.65,1.033-4.37,1.033-4.37a3.073,3.073,0,0,1-.256-1.27,1.835,1.835,0,0,1,1.548-2.07,1.07,1.07,0,0,1,1.083,1.2,17.114,17.114,0,0,1-.709,2.84,1.247,1.247,0,0,0,1.268,1.55c1.52,0,2.544-1.95,2.544-4.26a3,3,0,0,0-3.339-3.07,3.8,3.8,0,0,0-3.954,3.83,2.347,2.347,0,0,0,.53,1.58,0.377,0.377,0,0,1,.115.44c-0.039.15-.126,0.5-0.163,0.65a0.272,0.272,0,0,1-.4.19,3.075,3.075,0,0,1-1.645-3.06c0-2.27,1.924-5,5.738-5a4.792,4.792,0,0,1,5.083,4.59c0,3.14-1.751,5.49-4.332,5.49a2.306,2.306,0,0,1-1.961-1s-0.466,1.85-.564,2.2a6.751,6.751,0,0,1-.8,1.7A7.987,7.987,0,1,0,221.988,5255.02Z" transform="translate(-214 -5255.03)"/>
</svg>
