<svg xmlns="http://www.w3.org/2000/svg" width="16" height="12.97" viewBox="0 0 16 12.97">
  <defs>
    <style>
      .cls-1 {
        fill: #999;
        fill-rule: evenodd;
      }
    </style>
  </defs>
  <path id="twitter" class="cls-1" d="M641.562,1922.59a5.9,5.9,0,0,1-1.832.52,3.536,3.536,0,0,0,1.376-1.79,5.445,5.445,0,0,1-2.059.72,0.034,0.034,0,0,0,0,.01,3.3,3.3,0,0,0-5.6,3.01h0a9.541,9.541,0,0,1-6.992-3.42,3.289,3.289,0,0,0,1,4.35,2.111,2.111,0,0,1-1.442-.37,3.174,3.174,0,0,0,2.546,3.22,2.541,2.541,0,0,1-1.374.1,3.123,3.123,0,0,0,2.95,2.24,5.427,5.427,0,0,1-4.571,1.37,9.947,9.947,0,0,0,5.163,1.45,9.157,9.157,0,0,0,9.239-9.62,0.08,0.08,0,0,1,0-.02c0-.01,0-0.03,0-0.04s0-.03,0-0.05A5.663,5.663,0,0,0,641.562,1922.59Z" transform="translate(-625.563 -1921.03)"/>
</svg>
